<svg xmlns="http://www.w3.org/2000/svg" xmlns:xlink="http://www.w3.org/1999/xlink" width="1008.93" height="687.116" viewBox="0 0 1008.93 687.116"><defs><style>.a{fill:#fff;stroke:#707070;}.b{fill:#158ca6;}.c{clip-path:url(#a);}.d{clip-path:url(#b);}.e{fill:#bbd070;}.f{fill:#97a43c;}.g{fill:#48753a;}.h{fill:#ebebeb;}.i{fill:#005ca6;}.j{fill:url(#c);}.k{fill:#ffd179;}.l{fill:#ffdc7d;}.m{fill:#4ba2f4;}.n{fill:#f0f0f0;}.o{fill:#ffdf69;}.p{fill:#deba35;}.q{fill:#375eab;}.r{fill:#c9c9c9;}.s{fill:#ffd887;}.t{fill:#ffd989;}.u{fill:#cfbfb8;}.v{fill:#25354d;}.w{fill:#2f4563;}.x{fill:#eddad3;}.y{fill:#323657;}.z{fill:#eea886;}.aa{fill:#ffb555;}.ab{fill:#a77860;}.ac{fill:#c4c4c4;}.ad{fill:#202338;}.ae{fill:#81807e;}.af{fill:#292c47;}.ag{fill:#dbd8e3;}.ah{fill:#1d2033;}.ai{fill:#eea987;}.aj{fill:#d44040;}.ak{fill:#c4c1cc;}.al{fill:#3a4066;}.am{fill:#666fb3;}.an{fill:#2d314f;}.ao{fill:#b8b8b8;}.ap{fill:#d88a51;}.aq{fill:#ffce55;}.ar{fill:#004e8c;}.as{fill:#ccc;}.at{fill:#ffbf55;}.au{fill:#464240;}.av{fill:#919191;}.aw{fill:#bd8d3f;}.ax{fill:#e0e0e0;}.ay{fill:#33a4ff;}.az{fill:#007fe6;}.ba{fill:#0064b5;}.bb{fill:#353a3d;}.bc{fill:#2d3133;}.bd{fill:#decbc4;}.be{fill:#495055;}.bf{fill:#d6d6d6;}.bg{fill:#3c4145;}.bh{fill:#51565c;}.bi{fill:#f5e2d9;}.bj{fill:#ad9f99;}.bk{fill:#69737a;}</style><clipPath id="a"><rect class="a" width="1008.93" height="687.116"/></clipPath><clipPath id="b"><rect class="b" width="733.225" height="687.116" transform="translate(0)"/></clipPath><linearGradient id="c" y1="0.5" x2="1" y2="0.5" gradientUnits="objectBoundingBox"><stop offset="0" stop-color="#ff9f55"/><stop offset="1" stop-color="#ffd255"/></linearGradient></defs><g class="c"><g class="d" transform="translate(137.852)"><g transform="translate(-0.001 98.606)"><path class="e" d="M43.333,167.921s46.167-19.842,64.005,7.049-7.149,25.221-7.149,25.221-1.387,12.434-24.97-17C64.1,169.327,43.333,167.921,43.333,167.921Z" transform="translate(-28.496 -20.434)"/><path class="f" d="M35.6,94.083s40.99-12.711,67.971,39.276,51.246,56.1,51.246,56.1S62.116,206.086,35.6,94.083Z" transform="translate(-28.816 -23.257)"/><path class="g" d="M135.729,193.14c-3.589,17.286-43.147-16.043-47.046-45.932s3.861-51.817-4-70.992C84.691,76.216,153.416,108.028,135.729,193.14Z" transform="translate(-26.783 -23.941)"/><path class="h" d="M145.66,105.641a15.871,15.871,0,0,0-4.632.679,13.024,13.024,0,0,0-12.111-7.853,12.889,12.889,0,0,0-12.638,9.442,9.655,9.655,0,0,0-3.406-.621,9.008,9.008,0,0,0-9.229,8.774h55.04C158.663,110.307,152.84,105.641,145.66,105.641Z" transform="translate(-25.997 -23.02)"/><path class="h" d="M66.966,138.854a12.073,12.073,0,0,0-3.528.518,10.078,10.078,0,0,0-18.877,1.2,7.356,7.356,0,0,0-2.607-.475,6.873,6.873,0,0,0-7.038,6.688H76.876C76.881,142.413,72.443,138.854,66.966,138.854Z" transform="translate(-28.845 -21.574)"/><rect class="i" width="543.211" height="322.41" rx="21.923" transform="translate(44.894 117.828)"/><path class="j" d="M184.38,51.432a27.758,27.758,0,0,0-2.973-7.163l3.02-4.551-4.2-4.2-4.2-4.2-4.551,3.02a27.83,27.83,0,0,0-7.163-2.97l-1.089-5.351H151.377l-1.089,5.351a27.794,27.794,0,0,0-7.153,2.97l-4.551-3.02-4.2,4.2-4.2,4.2,3.02,4.551a27.756,27.756,0,0,0-2.967,7.167l-5.351,1.079V64.38l5.351,1.089a27.81,27.81,0,0,0,2.973,7.167l-3.02,4.548,4.2,4.2,4.2,4.2,4.551-3.02a27.792,27.792,0,0,0,7.164,2.97l1.089,5.351h11.854l1.089-5.351a27.83,27.83,0,0,0,7.163-2.97l4.551,3.02,4.2-4.2,4.2-4.2-3.02-4.548a27.809,27.809,0,0,0,2.973-7.167l5.351-1.089V52.508ZM157.311,79.241a20.8,20.8,0,1,1,20.8-20.8,20.8,20.8,0,0,1-20.8,20.8Z" transform="translate(-25.117 -26.021)"/><path class="j" d="M194.749,96.631a12.808,12.808,0,0,0-1.362-3.286l1.387-2.084-1.923-1.923-1.923-1.927L188.84,88.8a12.805,12.805,0,0,0-3.269-1.362l-.5-2.452h-5.449l-.493,2.452a12.835,12.835,0,0,0-3.286,1.362l-2.084-1.387-1.923,1.927-1.932,1.923,1.387,2.084a12.6,12.6,0,0,0-1.362,3.286l-2.452.493v5.449l2.452.493a12.6,12.6,0,0,0,1.362,3.286l-1.387,2.076,1.923,1.923,1.923,1.927,2.084-1.387a12.837,12.837,0,0,0,3.286,1.362l.493,2.452h5.449l.5-2.452a12.805,12.805,0,0,0,3.269-1.362l2.087,1.387,1.923-1.927,1.923-1.923-1.387-2.084a12.808,12.808,0,0,0,1.362-3.286l2.452-.493V97.117Zm-12.4,12.749a13.7,13.7,0,1,0-.009,0Z" transform="translate(-23.35 -23.577)"/><path class="k" d="M52.513,245.139l-7.837-6.831a1.545,1.545,0,1,1,2.03-2.327l5.539,4.837,7.9-8.815a1.545,1.545,0,0,1,2.3,2.06Z" transform="translate(-28.463 -17.507)"/><path class="l" d="M366.922,94.119H377.07l-3.107-6.438H363.816Z" transform="translate(15.074 3.638)"/><path class="l" d="M362.364,94.119h2.417l-3.107-6.438h-2.417Z" transform="translate(14.885 3.638)"/><path class="l" d="M328.635,86.627H369.72l-1.366-3.221H327.273Z" transform="translate(13.56 3.461)"/><path class="k" d="M10.918,165.589H24.141l-4.046-8.4H6.87Z" transform="translate(0.285 6.518)"/><path class="k" d="M4.975,165.589H8.128l-4.049-8.4H.929Z" transform="translate(0.039 6.518)"/><rect class="m" width="67.025" height="67.025" transform="translate(136.81 212.722)"/><rect class="n" width="67.025" height="67.025" transform="translate(64.693 140.556)"/><rect class="n" width="67.025" height="67.025" transform="translate(250.167 212.403)"/><rect class="m" width="67.025" height="67.025" transform="translate(322.285 212.403)"/><rect class="n" width="67.025" height="67.025" transform="translate(136.81 284.521)"/><rect class="o" width="67.025" height="67.025" transform="translate(136.81 356.644)"/><rect class="n" width="67.025" height="67.025" transform="translate(250.167 356.644)"/><rect class="n" width="67.025" height="67.025" transform="translate(64.693 284.682)"/><path class="o" d="M405.987,368.474s-.046,31.025-7.319,57.324l-15.5,9.7H328.515c10.384-27.629,10.447-67.03,10.447-67.03Z" transform="translate(-16.68 -11.832)"/><path class="p" d="M351.906,407.2v-9.924h15.5Z" transform="translate(14.581 16.466)"/><path class="m" d="M336.736,299.221s-.046,31.025-7.319,57.322l-15.5,9.708H259.267c10.384-27.632,10.447-67.03,10.447-67.03Z" transform="translate(-19.549 -14.701)"/><path class="q" d="M282.658,337.949v-9.924h15.5Z" transform="translate(11.711 13.597)"/><rect class="n" width="67.025" height="67.025" transform="translate(322.285 140.602)"/><path class="o" d="M336.736,161.029s-.046,31.025-7.319,57.324l-15.5,9.7H259.267c10.384-27.632,10.447-67.03,10.447-67.03Z" transform="translate(-19.549 -20.427)"/><path class="p" d="M282.658,199.757v-9.924h15.5Z" transform="translate(11.711 7.87)"/><path class="n" d="M158.643,368.474s-.049,31.025-7.319,57.324l-15.5,9.7H81.17c10.384-27.629,10.447-67.03,10.447-67.03Z" transform="translate(-26.928 -11.832)"/><path class="r" d="M104.562,407.2v-9.924h15.5Z" transform="translate(4.333 16.466)"/><rect class="o" width="67.025" height="67.025" transform="translate(431.443 212.722)"/><rect class="n" width="67.025" height="67.025" transform="translate(431.443 140.556)"/><rect class="n" width="67.025" height="67.025" transform="translate(503.563 140.556)"/><rect class="n" width="67.025" height="67.025" transform="translate(503.563 284.521)"/><rect class="o" width="67.025" height="67.025" transform="translate(503.563 356.644)"/><rect class="n" width="67.025" height="67.025" transform="translate(431.443 284.682)"/><path class="n" d="M510.8,368.474s-.046,31.025-7.319,57.324l-15.5,9.7H433.331c10.384-27.629,10.447-67.03,10.447-67.03Z" transform="translate(-12.337 -11.832)"/><path class="r" d="M456.724,407.2v-9.924h15.5Z" transform="translate(18.924 16.466)"/><path class="n" d="M405.987,299.221s-.046,31.025-7.319,57.322l-15.5,9.708H328.515c10.384-27.632,10.447-67.03,10.447-67.03Z" transform="translate(-16.68 -14.701)"/><path class="r" d="M351.906,337.949v-9.924h15.5Z" transform="translate(14.581 13.597)"/><rect class="s" width="30.204" height="2.117" transform="translate(644.965 291.858) rotate(180)"/><rect class="s" width="30.204" height="8.902" transform="translate(644.965 302.632) rotate(180)"/><rect class="l" width="16.359" height="1.221" transform="translate(253.781 97.177) rotate(180)"/><rect class="l" width="16.359" height="3.308" transform="translate(253.781 101.019) rotate(180)"/><rect class="t" width="1.33" height="24.94" transform="translate(651.257 303.27) rotate(180)"/><rect class="j" width="4.215" height="346.382" transform="translate(223.257 104.095)"/><rect class="j" width="4.215" height="346.382" transform="translate(408.269 104.095)"/><rect class="j" width="123.472" height="13.104" transform="translate(252.778 111.313)"/><path class="l" d="M460.516,93l-10.571-4.6a1.711,1.711,0,1,1,1.362-3.139l7.483,3.248,5.4-11.967a1.712,1.712,0,1,1,3.12,1.409Z" transform="translate(-11.691 -23.969)"/><path class="l" d="M472.953,103.553a21.613,21.613,0,1,1,5.259-30.112,21.613,21.613,0,0,1-5.259,30.112ZM449.876,70.711a18.528,18.528,0,1,0,25.809,4.507A18.528,18.528,0,0,0,449.876,70.711Z" transform="translate(-12.106 -24.437)"/><path class="u" d="M672.475,450.626a13.334,13.334,0,0,0,1.684-3.48,4.144,4.144,0,0,1,.962-2.021s5.483-.8,7.588-2.752,6.57-7.283,8.679-5.687S689.86,445,687.71,447.041s-5.062,5.585-7.708,5.324S673.755,450.834,672.475,450.626Z" transform="translate(-2.429 -9.018)"/><path class="v" d="M675.345,450.687l2.646-5.178s-12.659-2.319-16.348-4.548c-.929-.545-1.853-1.12-2.725-1.651-1.957-1.207-3.578-2.251-4.15-2.725-1.826-1.555-9.153-6.746-11.134-8.651s-4.315-.744-7.4-.714-14.265,3.128-17.607,3.573-15.416,2.687-15.416,2.687C605.336,439.289,675.345,450.687,675.345,450.687Z" transform="translate(-5.299 -9.414)"/><path class="w" d="M602.987,433.035s6.812.981,8.564,1.114,11.938.954,16.827,1.423,14.5.188,16.409,1.027,12.924,4.573,16.529,5.717,27.038,5.449,27.038,5.449a7.923,7.923,0,0,1-1.67,5.609s-10.329-.923-15.779-.123-14.986-.419-20.749-3.041-14.938-.229-20.057,1.57-24.69,3.242-27.131,2.7a24.305,24.305,0,0,1-10.842-6.736C588.6,443.916,602.987,433.035,602.987,433.035Z" transform="translate(-5.781 -9.157)"/><path class="x" d="M682.9,453.318a13.586,13.586,0,0,0,.791-3.785,3.424,3.424,0,0,1,.316-1.932s5.253-2.362,6.826-4.769,4.614-8.656,7.044-7.63.529,8.447-1.066,10.927-2.583,9.115-5.212,9.5S684.19,453.207,682.9,453.318Z" transform="translate(-1.997 -9.072)"/><path class="w" d="M587.938,428.846s-8.61,19.539,4.755,24.27c10.659,3.775,30.311.3,30.311.3l-12.1-19.049Z" transform="translate(-6.044 -9.331)"/><path class="y" d="M609.6,358.145c-3.27.73-1.325,8.96-3.521,20.469s-9.133,13.305-9.133,13.305,3.078-5.1,2.744-10.438c-.273-4.169-5.313-15.533-.324-22.976,3.855-5.744,10.651-.529,10.651-.529Z" transform="translate(-5.559 -12.357)"/><path class="z" d="M604.373,381.286l6.373,6.562a14.2,14.2,0,0,1,.957-3.894c.216-.6.45-1.139.632-1.555.24-.545.411-.894.411-.894l-5.687-6.014Z" transform="translate(-5.251 -11.542)"/><path class="aa" d="M612.7,387.022a15.787,15.787,0,0,0,1.962,6.065c1.719,2.912,4.558,7.742,4.155,10.883a7.717,7.717,0,0,1-2.946,5.414c-1.207,1.134-4.521,9.292-4.923,12.433a60.216,60.216,0,0,0,.108,14.466s-22.344,2.589-24.6-1.31c0,0,2.773-12.559,4.087-15.706s4.046-21.976,5.221-25.177,3.946-6.3,5.64-8.521c1.51-1.98,4.269-5.673,4.269-5.673Z" transform="translate(-5.993 -11.359)"/><path class="z" d="M614.762,358.711a10,10,0,0,1,9.385,10.313,24.475,24.475,0,0,1-1.175,3.657c-.7,1.589.216,6.616-.2,6.812a10.664,10.664,0,0,1-2.041.324s-2.324,5.106-4.18,4.844a15.544,15.544,0,0,1-11.3-9.512C602.7,368.16,602.86,357.893,614.762,358.711Z" transform="translate(-5.269 -12.238)"/><path class="y" d="M624.194,369.065a26.52,26.52,0,0,1-9.938,2.8c-4.8.108-8.737,7.81-8.737,7.81s-5.815-13.047.841-19.665S626.27,360.128,624.194,369.065Z" transform="translate(-5.301 -12.294)"/><path class="z" d="M612.86,371.317a1.464,1.464,0,0,0-2.423-1.332c-1.643,1.079-.13,5.662,1.147,5.376S612.778,372.266,612.86,371.317Z" transform="translate(-5.029 -11.785)"/><path class="ab" d="M607.64,378.622a28.588,28.588,0,0,0,3.926,5.2c.216-.6.45-1.139.632-1.555a20.074,20.074,0,0,1-4.559-3.649Z" transform="translate(-5.115 -11.412)"/><rect class="ac" width="31.741" height="2.761" transform="matrix(0.982, 0.19, -0.19, 0.982, 615.659, 424.418)"/><rect class="ac" width="31.749" height="2.762" transform="matrix(0.571, -0.821, 0.821, 0.571, 648.776, 434.921)"/><path class="z" d="M648.276,436.667c.155-.695,0-1.853-2.18-3.02s-6.91-3.834-8.569-3.9-4.93.2-5.6.193,1.052,3.951,1.052,3.951Z" transform="translate(-4.115 -9.293)"/><path class="z" d="M634.012,431.919s-9.115-3.586-10.594-4.3-8.381-3.035-8.992-3.344-3.5-17.534-3.751-21.872-.513-13.523-5.409-13.115-6.074,3.624-5.449,9.951,4.235,28.984,5.766,29.75,19.1,4.694,28.369,6.54C642.813,437.3,634.012,431.919,634.012,431.919Z" transform="translate(-5.446 -10.97)"/><path class="x" d="M611.236,403.8s-7.06,1.316-11.131,1.726c0,0-5.062-14.441,1.834-16.733C610.109,386.055,611.934,397.235,611.236,403.8Z" transform="translate(-5.501 -11.008)"/><path class="z" d="M497.083,342.8s-2.087-.818-2.234-2.144a8.006,8.006,0,0,0-1.343-2.937c-.382-.572-.951-2.757-1.618-2.291s.777,3.643.957,4.36-2.668-.818-3.382-.678-2.654,5.133-.591,5.962,4.717.3,5.055.52a13.884,13.884,0,0,0,1.48.662Z" transform="translate(-10.073 -13.204)"/><path class="ad" d="M549.054,470.586a27.665,27.665,0,0,0,2.4,3.744c.948,1.062,4.578,2.967,4.6,6.128.021,3.43-6.117,2.481-8.522,2.351s-2.583-1.957-3.594-3.9-2.027-1.618-2.218-3.177.978-5.15.978-5.15Z" transform="translate(-7.848 -7.602)"/><path class="ad" d="M514.111,470.308s-2.957,3.27-5.96,3.959-5.1,1.561-5.128,3.439,8.643,3.117,12.081,1.223c5.131-2.828,5.651-1.976,6.221-3.387s-.684-5.191-.647-5.64C520.721,469.346,514.111,470.308,514.111,470.308Z" transform="translate(-9.45 -7.637)"/><path class="ae" d="M514,468.817a13.578,13.578,0,0,0-.332,1.567c.057.032,6.769.818,6.567-.406-.166-1-.4-2.082-.4-2.082Z" transform="translate(-9.008 -7.712)"/><path class="ae" d="M542.744,469.615a14.977,14.977,0,0,0-.227,1.5c.047.036,6.812,1.228,6.763,0a5.831,5.831,0,0,0-.621-2.089Z" transform="translate(-7.813 -7.666)"/><path class="af" d="M520.13,380.919s-2.453,23.485-3.708,31.523c-1.482,9.4-1.987,17.166-2.4,22.033-.52,6.12-.621,36.221-.987,38.011s8.085.493,8.085.493,4.153-39.333,5.7-45.844c1.444-6.069,6.812-32.2,8.117-30.539s2.951,30.491,3.926,35.273,3.94,42.256,3.94,42.256,6.722,1.327,8.512-.175c0,0,.818-32.289.191-41.265-.237-3.419,4.044-41-1.444-56.131C547.162,368.56,520.13,380.919,520.13,380.919Z" transform="translate(-9.035 -11.609)"/><path class="ag" d="M565.02,357.138c1.417,3.875-11.591,13.577-9.972,13.875s1.545,3.366,1.545,3.366,12.261-10.668,11.99-13.807c-.141-1.746-9.731-27.115-11.2-28.163a105.238,105.238,0,0,0-10.523-4.466,23.315,23.315,0,0,0-2.886-.987c-.744-.046-9.918.818-9.918.818s-1.316.452-2.662,1.068c-2.294,1.055-5.872,2.7-8.447,3.924-.832.395-1.866.929-2.725,1.384q.155,4.676.545,10.032s.477,7.81.52,15.693a36.212,36.212,0,0,1,.341,5.933c.108,3.935-.323,7.976-.439,10.231-.18,3.542-.668,8.6-.668,8.6l4.46,1.82,19.544-.182,6.12-1.635s-.366-15.716-.273-20.286c.084-4.4,1.011-15.834,1.187-16.5C551.592,347.869,558.145,338.35,565.02,357.138Z" transform="translate(-8.737 -13.552)"/><path class="ah" d="M521.124,380.754a162.733,162.733,0,0,0,25.185,0v3.858s-17.512,1.671-25.774-.736Z" transform="translate(-8.724 -11.324)"/><path class="y" d="M520.167,334.05c.108,3.169.256,6.569.525,10.21,0,0,.253,8.892.766,17.325a16.762,16.762,0,0,1,.163,3.705c-.128,1.635-.305,3.452-.521,5.327v.071c-.052.447-.108.9-.157,1.362v.019c-1.141,9.4-3.076,20.164-4.087,23.433-.216.679.523,1.311,1.046,1.8l3.673,2.314s1.51-13.938,2.016-18.668c.485-4.567,2.011-10.686,2.678-16.652h0c.848-7.569,2.014-14.986,2.646-19.387,1.635-11.468,3.814-16.6,3.814-16.6C531.68,328.6,520.167,334.05,520.167,334.05Z" transform="translate(-8.878 -13.495)"/><path class="y" d="M563,356.115c1.594,3.491-10.081,14.169-9.954,14.518a33.629,33.629,0,0,0,3.837,5.94s18.092-19.436,17.853-21.828c-.172-1.744-15.341-21.112-16.807-22.16-.845-.607-7.112-2.828-10.185-4.041-.564-.223-2.395-.913-2.9-1.09-.654.725-5.237,5.657-6.812,24.4-.273,3.16.575,9.85,1.141,15.311.6,5.825,1.268,10.374,1.757,15.259.962,9.6,1.635,17.237,1.635,17.237l9.553-4.253c1.545-.773,4.221-2.791,3.637-4.423-2.207-6.185-5.521-17.906-5.523-23.335,0,0,2.523-18.134,3.368-21.055C553.6,346.57,561.224,352.21,563,356.115Z" transform="translate(-8.001 -13.531)"/><path class="ai" d="M542.586,328.28a64.236,64.236,0,0,1,1.278-9.52c.324-1.705-9.9,4.487-9.9,4.487s.032.6.054,1.4c0,.425.016.91,0,1.395v.509a11.368,11.368,0,0,1-.071,1.248,5.859,5.859,0,0,1-.341,1.229C533.188,330,539.142,330.744,542.586,328.28Z" transform="translate(-8.184 -13.904)"/><path class="aj" d="M536.168,331.059l-1.695,2.278a2.057,2.057,0,0,0,2.757.348Z" transform="translate(-8.147 -13.382)"/><path class="aj" d="M535.118,333.331s-6.431,24.755-5.106,44.022l2.164,3.815,2.025-3.991s.545-34.469,2.319-43.9Z" transform="translate(-8.339 -13.29)"/><path class="ai" d="M534.355,329.046l1.814,2.123s2.912-.564,3.769-2.087S534.355,329.046,534.355,329.046Z" transform="translate(-8.152 -13.493)"/><path class="ak" d="M534,327.235a8.768,8.768,0,0,0,2.232,3.981l-2.2,2.962-1.193-6.148Z" transform="translate(-8.215 -13.54)"/><path class="ak" d="M542.641,325.755s-3.607,4.36-6.553,5.523l1.362,3.387,6.856-7.357Z" transform="translate(-8.08 -13.602)"/><path class="y" d="M491.52,346.434s15.533,16.894,19.2,15.978c1.695-.416,4.264-3.344,6.385-6.092.7-.907,1.387-1.859,2.038-2.8h0c2.6-3.757,4.632-7.357,4.632-7.357s7.7-9.017,1.521-13.038a6.949,6.949,0,0,0-4.087.818c-1.362,1.009-4.689,7.357-5.228,8.531s-4.739,9.471-5.131,9.717-4.515-2.229-6.719-3.711a81.511,81.511,0,0,1-8.038-6.58Z" transform="translate(-9.926 -13.299)"/><rect class="al" width="6.278" height="4.763" transform="translate(528.58 374.401) rotate(180)"/><path class="ab" d="M534.008,325.917v.509c5.851-1.964,6.981-4.919,6.981-4.919-1.823,1.294-6.989,3.014-6.989,3.014C534.008,324.951,534.008,325.435,534.008,325.917Z" transform="translate(-8.167 -13.779)"/><path class="z" d="M554.663,368.855a2.048,2.048,0,0,1-1.141.457c-1.011,0-2.164-1.109-3.223-.108s1.169,5.253,1.973,5.753,2.627-.4,4.58-2.757S554.663,368.855,554.663,368.855Z" transform="translate(-7.503 -11.819)"/><path class="z" d="M551,368.913a41.8,41.8,0,0,0-4.232,1.768c-1.907.934-4.164,2.362-3.935,2.848.348.736,2.057-.647,4.019-1.444,1.8-.733,1.573-.273,1.573-.273s.06-.131-1.752,1.057c-1.948,1.275-3.991,2.725-3.814,3.128.223.5.295.545,1.079.193-.406.3-.382.452-.273.637.562.948,3.714-.475,4.967-1.041-.959.441-1.618.863-.9,1.229.818.411,5.191-1.807,6.834-2.452C556.361,373.858,551,368.913,551,368.913Z" transform="translate(-7.801 -11.814)"/><path class="y" d="M552.451,369.222s.444,2.6,3.837,5.94c0,0,7.766-8.574,9.158-10.179l-6.082-3.542Z" transform="translate(-7.401 -12.123)"/><path class="z" d="M531.768,307.528s-3.153,3.528-2.221,4.417c.771.736-2.123,4.248-2.532,4.837s1.362,1.51,1.651,2.021.25,5.94,1.757,6.463,9.046-.234,11.411-1.752,6.046-10.047,5.678-14.1S537.312,301.369,531.768,307.528Z" transform="translate(-8.458 -14.489)"/><path class="y" d="M530.965,308.447a6.4,6.4,0,0,1,3.64-7.188c4.826-2.284,10.94,5.2,11.716,5.621s5.487,1.889,1.079,9.708c-3.793,6.708-4.155,6.942-4.155,6.942s-.545-4.546-1.273-5.393c-1.13-1.319-4.189-1.8-4.189-1.8s2.335-3.452.229-4.523S533.425,308.148,530.965,308.447Z" transform="translate(-8.3 -14.635)"/><path class="z" d="M540.335,314.239c.324-.471,1.491-2.559,3.1-.784s-2.518,5.246-2.866,5.218S537.641,318.226,540.335,314.239Z" transform="translate(-7.954 -14.141)"/><path class="am" d="M483.114,359.375s-.937,3.689-1.066,4.246-5.913-.971-5.913-.971v-4.512S482.435,358.766,483.114,359.375Z" transform="translate(-10.564 -12.259)"/><path class="an" d="M482.252,362.985a16.186,16.186,0,0,0,3.316,3.641c1.7,1.187,8.242,2.7,9.2,3.837.693.818,1.651,3.919-8.853,2.5-7.463-1.005-11.145-.755-11.815-2.049s2.128-8.836,2.128-8.836S477.82,362.947,482.252,362.985Z" transform="translate(-10.653 -12.097)"/><rect class="ao" width="252.543" height="2.654" transform="translate(467.676 489.645) rotate(-84.44)"/><rect class="ao" width="252.543" height="2.654" transform="translate(424.93 485.495) rotate(-84.44)"/><rect class="ao" width="2.653" height="42.931" transform="matrix(0.097, -0.995, 0.995, 0.097, 450.034, 240.462)"/><rect class="ao" width="2.653" height="42.931" transform="matrix(0.097, -0.995, 0.995, 0.097, 448.104, 260.335)"/><rect class="ao" width="2.653" height="42.931" transform="matrix(0.097, -0.995, 0.995, 0.097, 446.177, 280.21)"/><rect class="ao" width="2.653" height="42.931" transform="matrix(0.097, -0.995, 0.995, 0.097, 444.246, 300.084)"/><rect class="ao" width="2.653" height="42.931" transform="matrix(0.097, -0.995, 0.995, 0.097, 442.365, 319.995)"/><rect class="ao" width="2.653" height="42.931" transform="matrix(0.097, -0.995, 0.995, 0.097, 440.385, 339.825)"/><rect class="ao" width="2.653" height="42.931" transform="matrix(0.097, -0.995, 0.995, 0.097, 438.455, 359.696)"/><rect class="ao" width="2.653" height="42.931" transform="matrix(0.097, -0.995, 0.995, 0.097, 436.53, 379.571)"/><rect class="ao" width="2.653" height="42.931" transform="matrix(0.097, -0.995, 0.995, 0.097, 434.606, 399.451)"/><rect class="ao" width="2.653" height="42.931" transform="matrix(0.097, -0.995, 0.995, 0.097, 432.675, 419.325)"/><rect class="ao" width="2.653" height="42.931" transform="matrix(0.097, -0.995, 0.995, 0.097, 430.747, 439.197)"/><rect class="ao" width="2.653" height="42.931" transform="matrix(0.097, -0.995, 0.995, 0.097, 428.814, 459.066)"/><rect class="ao" width="2.653" height="42.931" transform="matrix(0.097, -0.995, 0.995, 0.097, 426.925, 478.986)"/><path class="z" d="M537.617,221.622a3.92,3.92,0,0,1-.932.855s-.722.273-1.223.5a3.679,3.679,0,0,0-.379.191,7.274,7.274,0,0,1-2.049,1.089c-.989.273-5.449,1.3-5.449,1.3l-1.038-2.651-.744-2.142s4.136-5.36,5.025-5.717a2.445,2.445,0,0,1,.273-.09,9.127,9.127,0,0,1,1.907-.171c.157-.03,1.733-.207,2.073.123a1.553,1.553,0,0,1,.545,1.409,3.683,3.683,0,0,1,.951,1.8,2.3,2.3,0,0,1,.621,1.934C537.16,220.016,537.922,220.962,537.617,221.622Z" transform="translate(-8.507 -18.202)"/><path class="m" d="M491.345,256.168a60.922,60.922,0,0,1,6.992-3.878c8.6-4.308,19.232-12.111,21.25-13.24,3.107-1.733,12.922-13.725,12.922-13.725-.507-1.807-5.16-5.43-5.16-5.43s-14.877,14.093-18.128,15.828c-2.8,1.491-16.621,3-20.414,3.387l-.971.1C483.866,244.628,489.127,257.6,491.345,256.168Z" transform="translate(-10.139 -17.988)"/><path class="an" d="M490.941,284.838s4.207,15.635,5.319,21.223c.971,4.869,2.912,17.839,3.191,20.926s-12.427,32.93-13.75,38.319l-11.577-1.859s12.213-31.066,9.028-37.969c-4.739-10.265-5.355-9.956-9.087-18.412s-12.261-8.656-14.572-24.349C459.492,282.719,487.836,279.874,490.941,284.838Z" transform="translate(-11.253 -15.419)"/><path class="z" d="M470.118,211.812s7.687-2.871,11.229,2.98,3.2,17.564-.67,19-9.7.687-11.679-2.973-3.775-8.953-3.687-12.49S468.1,212.834,470.118,211.812Z" transform="translate(-11.013 -18.352)"/><path class="z" d="M479.3,232.828a6.4,6.4,0,0,0,.2,3c.515.981-9.667,1.019-9.667,1.019a65.6,65.6,0,0,0-2.395-9.959C465.866,222.329,479.3,232.828,479.3,232.828Z" transform="translate(-10.929 -17.746)"/><path class="ap" d="M467.552,227.527s.7,1.159,3.573.709,6.364-4.267,7.564-4.684,1.21-1.123,1.21-1.123l.75,1.089,1.273.079s-1.161-3.414.589-4.8-1.814-11.049-11.013-7.833c0,0-7.065,1.942-6.812,5.965S465.971,225.535,467.552,227.527Z" transform="translate(-11.038 -18.385)"/><path class="z" d="M479.217,220.618c-.161-.673-1.875-2.6-2.532-.545s.991,4.837,1.907,4.6S479.625,222.319,479.217,220.618Z" transform="translate(-10.548 -18.019)"/><path class="m" d="M450.965,261.682a4.52,4.52,0,0,0,2.019,2.637,3.286,3.286,0,0,0,1.752.577h.457l7.982.273s5.933-19.191-5.2-26.51C457.635,238.71,450.191,252.431,450.965,261.682Z" transform="translate(-11.609 -17.211)"/><path class="an" d="M474.1,370.916c.671,1.295,4.36,1.046,11.815,2.05a34.5,34.5,0,0,0,4.9.362l.431-4.491a33.9,33.9,0,0,1-5.687-2.212,16,16,0,0,1-3.316-3.64c-4.43-.038-6.028-.907-6.028-.907S473.423,369.613,474.1,370.916Z" transform="translate(-10.652 -12.097)"/><path class="m" d="M479.25,234.9s-6.267-1.457-9.809-.273l-.545.493s-1.079,2.057,2.967,2.234S482.281,237.838,479.25,234.9Z" transform="translate(-10.869 -17.397)"/><path class="am" d="M455.592,375.944s-.94,3.689-1.068,4.246-5.913-.971-5.913-.971V374.7S454.917,375.337,455.592,375.944Z" transform="translate(-11.704 -11.573)"/><path class="an" d="M460.02,282.686A121.228,121.228,0,0,0,457.3,300.1c-.578,8.052-1.635,16.894-2.452,25.3-.932,9.385-3.589,24.561-3.725,29.583s-4.36,26.976-4.36,26.976l10.809,1.239s7-38.782,8.665-42.752,9.886-32.227,10.163-35.4S460.02,282.686,460.02,282.686Z" transform="translate(-11.78 -15.386)"/><path class="an" d="M454.727,379.557a16.133,16.133,0,0,0,3.316,3.637c1.7,1.187,8.242,2.7,9.2,3.837.689.818,1.635,3.919-8.856,2.5-7.463-1.005-11.145-.755-11.815-2.049s2.128-8.834,2.128-8.834S450.3,379.516,454.727,379.557Z" transform="translate(-11.793 -11.41)"/><path class="m" d="M493.286,306.317c.921-.131-2.289-27.581-2.044-29.3.166-1.147.139-10.068.073-15.629l1-5.626a25.409,25.409,0,0,1,2.2-1.393c1.393-.818,3.142-1.726,5.085-2.7-.227-1.33-.384-2.373-.444-3a11.27,11.27,0,0,0-5.687-8.665,9.222,9.222,0,0,0-1.294-.647q-1.079-.457-2.1-.88c-4.53-1.864-10.288-3.616-10.288-3.616h-9.265a78.3,78.3,0,0,0-11.24,3.128,7.947,7.947,0,0,0-1.51.832l1.278,26.379v.016a.346.346,0,0,0,0,.036c.564,3.708,1.161,8.09,1.362,11.156.082,1.253-1.362,7.982-2.1,14.169L455.7,305.358S457.2,311.475,493.286,306.317Z" transform="translate(-11.41 -17.368)"/><rect class="aq" width="0.393" height="41.044" transform="translate(617.147 181.637)"/><rect class="aq" width="0.393" height="41.044" transform="translate(644.961 181.637)"/><rect class="aq" width="0.393" height="41.044" transform="translate(672.776 181.637)"/><rect class="aq" width="0.393" height="41.044" transform="translate(700.594 181.637)"/><rect class="aq" width="0.393" height="41.044" transform="translate(728.409 181.637)"/><rect class="aq" width="4.425" height="1.425" transform="translate(617.341 225.112)"/><rect class="aq" width="6.662" height="1.071" transform="translate(617.341 176.58)"/><rect class="aq" width="9.449" height="1.071" transform="translate(617.341 178.555)"/><rect class="aq" width="7.823" height="1.071" transform="translate(644.858 176.58)"/><rect class="aq" width="5.003" height="1.071" transform="translate(644.858 178.555)"/><rect class="aq" width="4.848" height="1.071" transform="translate(673.169 176.58)"/><rect class="aq" width="5.649" height="1.071" transform="translate(673.169 178.555)"/><rect class="aq" width="7.06" height="1.071" transform="translate(700.983 176.58)"/><rect class="aq" width="5.649" height="1.071" transform="translate(700.983 178.555)"/><rect class="aq" width="4.218" height="1.071" transform="translate(728.605 176.58)"/><rect class="aq" width="3.373" height="1.071" transform="translate(728.605 178.555)"/><rect class="aq" width="4.425" height="1.425" transform="translate(645.158 225.112)"/><rect class="aq" width="4.425" height="1.425" transform="translate(673.169 225.112)"/><rect class="aq" width="4.425" height="1.425" transform="translate(700.983 225.112)"/><rect class="aq" width="4.425" height="1.425" transform="translate(728.801 225.112)"/><path class="aq" d="M723.489,228.855c-8.676,0-16.218-3.752-24.079-7.659-9.708-4.828-19.74-9.809-33.115-8.447-8.54.872-13.9,4.36-18.63,7.419-4.28,2.777-8.33,5.221-13.807,5.428-8.861.338-11.935-3.441-11.989-3.667V219.5h0c0,.041,1.941,4.283,11.989,4.232,4.94-.025,8.585-2.389,12.806-5.128,4.9-3.185,10.463-6.8,19.453-7.711,13.9-1.42,24.193,3.692,34.137,8.638,10.406,5.178,20.335,10.032,32.891,5.817v1.992A28.314,28.314,0,0,1,723.489,228.855Z" transform="translate(-4.525 -18.37)"/><path class="aq" d="M671.413,228.608c-6.4,0-11.482-4.3-16.455-8.522-3.776-3.2-7.685-6.466-12.2-8.079-13.779-4.9-20.831,4.065-20.894,4.144v-2.72a12.567,12.567,0,0,1,4.969-3.286c3.314-1.42,8.872-2.55,16.537.114,4.854,1.689,8.89,5.109,12.79,8.414,7.9,6.708,14.747,12.5,26.613,3.428,8.992-6.874,17.463-13.425,25.8-15.8,8.153-2.341,16.654-.627,24.61,7.335l-.057,2.481c-16.894-16.978-31.3-6.221-49.221,7.485C679.164,227.206,675.071,228.608,671.413,228.608Z" transform="translate(-4.526 -18.592)"/><path class="ai" d="M38.451,468.139s-.073-1.294,2.545-2.8l-3.389-3.591a21.678,21.678,0,0,0-4.046,2.932C31.546,466.537,38.451,468.139,38.451,468.139Z" transform="translate(-28.916 -7.968)"/><path class="ai" d="M116.559,469.622s-.259-3.182.73-4.73l-4.237-.863s-2.428,3.46-2.3,5.534S116.559,469.622,116.559,469.622Z" transform="translate(-25.703 -7.873)"/><path class="ai" d="M46.255,480.678c-.046,1.2.022,1.861-3.646,1.785s-7.046-4.558-9.408-7.711-5.521-4.725-3.433-6.739c.256-.245.526-.5.818-.746,1.975-1.782,4.305-3.518,4.619-3.875.352-.409,3.493,4.144,3.493,4.144a8.238,8.238,0,0,0,.2,3.541c.548,1.321,1.321,6.074,3.03,6.915h0C43.621,478.837,46.264,480.417,46.255,480.678Z" transform="translate(-29.086 -7.901)"/><path class="ai" d="M127.283,479.87a128.077,128.077,0,0,0-13.187-.442c-3.85.275-5.321-.359-4.962-3.1.019-.15.041-.3.068-.455.431-2.682,1.635-6.03,1.736-7.153.118-1.187,4.953-.365,4.953-.365s2.419,3.848,3.793,4.662,5.558,2.521,7.161,3.3c.118.057.245.108.379.161h0c1.7.637,4.6.818,4.989,1.752C132.638,479.246,129.719,480,127.283,479.87Z" transform="translate(-25.773 -7.706)"/><path class="ar" d="M127.282,479.57a128.1,128.1,0,0,0-13.182-.439c-3.85.275-5.321-.359-4.962-3.1.019-.15.041-.3.068-.455.946-.61,7.588,0,11.5.647a17.106,17.106,0,0,0,6.517-.041h0c1.7.638,4.6.818,4.989,1.752C132.637,478.946,129.718,479.695,127.282,479.57Z" transform="translate(-25.772 -7.405)"/><path class="ar" d="M46.371,480.488c-.043,1.2-.093,1.907-3.76,1.823s-7.046-4.559-9.409-7.711-5.521-4.725-3.433-6.738c.256-.245.526-.5.818-.747.108.1,4.717,4.232,6.133,7.058,2.36,4.694,5.087,3.646,5.2,3.668h0C43.621,478.681,46.381,480.222,46.371,480.488Z" transform="translate(-29.086 -7.745)"/><path class="as" d="M134.347,435.721c-4.014,6.09-16.268,35.39-16.268,35.39l-9.646-1s6.839-20.553,10.185-28.125c2.481-5.609,5.885-8.368,2.662-9.949-2.725-1.338-19.128-7.9-26.071-11.665a23.413,23.413,0,0,1-2.15-1.28,6.194,6.194,0,0,1-.578-.45c-3.185-2.891,4-23.3,15.161-16.782,0,0,24.286,19.4,26.12,22.689S138.364,429.62,134.347,435.721Z" transform="translate(-26.491 -10.501)"/><path class="as" d="M109.434,401.562S92.93,424.7,77.963,437.194c-4.237,3.542-7.685,6.472-13.733,11-3.216,2.409-8.9,7.465-13.529,11.673l-.193.177c-3.3,3-6.022,5.545-6.861,6.333a.685.685,0,0,0-.079.073l-.095.087L40.465,469.6l-4.315-4.207a120.187,120.187,0,0,0,8.1-11.044c4.137-6.755,10.169-14.248,13.291-16.409,5.346-3.7,10.553-5.908,12.52-9.414S78.813,410.9,78.813,410.9s1.561-14.721,10.58-17.956C97.889,389.884,109.434,401.562,109.434,401.562Z" transform="translate(-28.793 -10.839)"/><path class="ai" d="M116.041,342.352a8.4,8.4,0,0,0-1.025,2.265,19.931,19.931,0,0,0-.578,2.452,29.328,29.328,0,0,0-.373,3.153s-9.5-2.8-7.755-4.935,1.284-9.03,1.284-9.03S117.43,340.336,116.041,342.352Z" transform="translate(-25.895 -13.168)"/><path class="z" d="M122.82,324.723s2.319,2.327.768,8.431c0,0,.191,4.962.882,5.878s-2.109,1.03-2.452,1.635-1.089,3.452-3.161,5.06-11.272-4.36-11.526-7.357-5.994-16.223,4.58-16.046S122.82,324.723,122.82,324.723Z" transform="translate(-25.918 -13.744)"/><path class="at" d="M120.858,377.807q-.591,1.022-1.308,2.136c-1.294,2.019-2.88,4.283-4.771,6.919a21.182,21.182,0,0,0-1.376,2.016c-2.452,4.321-4.441,11.681-5.114,14.338-.159.63-.234.953-.234.953-12.761.273-26.158-8.024-26.158-8.024,8.392-8.872,11.679-15.722,11.679-15.722a28.476,28.476,0,0,0,1.578-8.681c.482-10.319,3.344-16.011,6.128-20.515a18.582,18.582,0,0,1,6.024-6.286l7.8,4.733c.91,2.93,4.087,6.2,7.221,13.352C124.627,368.309,124.172,372.061,120.858,377.807Z" transform="translate(-26.898 -12.807)"/><path class="au" d="M124.02,331.062s2.109-12.754-10.507-11.359-7.207,15.891-5.862,20.585c0,0,.307-7.119,6.319-6.919S121.319,332.264,124.02,331.062Z" transform="translate(-25.926 -13.857)"/><path class="ai" d="M112.942,331.054c-.654-1.362-3.269-.848-3.128,1.159s2.068,4.139,2.82,3.226a3.857,3.857,0,0,0,.309-4.385Z" transform="translate(-25.742 -13.414)"/><path class="au" d="M108.84,323.433s-3.376-3.739-6.237,0,2.382,9.66,4.9,6.562a7.289,7.289,0,0,0,1.332-6.562Z" transform="translate(-26.074 -13.768)"/><path class="ab" d="M114.877,344.441a19.928,19.928,0,0,0-.577,2.452c-3.1-1.692-5.178-6.333-5.178-6.333a24.45,24.45,0,0,0,5.753,3.878Z" transform="translate(-25.769 -12.989)"/><path class="au" d="M107.684,322.235a6.113,6.113,0,0,0-5.09-2.548c-3.553-.036-7.9,5.341-6.812,13.16s-1.42,16.948-8.84,24.466c0,0,12.944-6.978,14.145-17.273s4.848-10.316,4.848-10.316Z" transform="translate(-26.689 -13.854)"/><path class="z" d="M136.5,395.258s3.4.063,4.207.188a13.073,13.073,0,0,0,2.741.431c.232-.159.981-3.351,1.561-4.041s2.651-7.758,2.278-7.706-1.657,1.875-4.3,4.976-5.667,1.957-6.733,2.687S136.5,395.258,136.5,395.258Z" transform="translate(-24.662 -11.184)"/><path class="av" d="M93.008,418.731s7.057-8.286,7.6-9.265c-.286.632-3.991,8.788-5.449,10.556a23.446,23.446,0,0,1-2.148-1.294Z" transform="translate(-26.437 -10.133)"/><path class="aw" d="M119.536,377.021q-.591,1.021-1.308,2.136s-4.013-12.22-4.415-15.216C113.812,363.941,117.628,372.473,119.536,377.021Z" transform="translate(-25.576 -12.02)"/><path class="at" d="M139.376,392.739s-12.649-2.885-18.837-8.754c-1.618-1.534-7.992-26.354-7.992-26.354s-1.75-6.267-7.294-4.464-3.324,8.128-3.324,8.128,7.659,19.637,11.717,27.279c3.376,6.354,25.823,8.465,25.823,8.465Z" transform="translate(-26.085 -12.48)"/><path class="ax" d="M76.2,319.669l1.787-2.245,7.659,4.657.046,3.883Z" transform="translate(3.158 13.156)"/><path class="ay" d="M152.622,379.587a67.721,67.721,0,0,0-10.5,23.869h0a68.041,68.041,0,1,0,10.51-23.88Z" transform="translate(-24.479 -12.578)"/><path class="az" d="M148.944,362.228,208.072,418.9l5.449-81.744a81.96,81.96,0,0,0-64.578,25.068Z" transform="translate(-24.12 -13.137)"/><path class="ba" d="M150.767,377.512a69.954,69.954,0,0,0-10.85,24.656l68.531,15.4-50.7-48.6a69.268,69.268,0,0,0-6.976,8.537Z" transform="translate(-24.493 -11.812)"/><path class="ar" d="M135.957,399.943h0a74.348,74.348,0,0,0-1.75,18.621l74.488-2.286Z" transform="translate(-24.732 -10.528)"/><path class="bb" d="M341.253,461.629s2.068,3.1,4.973,3.768,5.766,1.733,5.787,3.56-8.4,2.927-11.717,1.089c-4.962-2.757-5.466-1.927-6.017-3.305s.662-5.062.627-5.5C334.858,460.692,341.253,461.629,341.253,461.629Z" transform="translate(-16.447 -7.997)"/><path class="ae" d="M340.9,460.174a13.576,13.576,0,0,1,.324,1.528c-.055.032-6.54.818-6.349-.395.157-.971.384-2.032.384-2.032Z" transform="translate(-16.416 -8.07)"/><path class="bb" d="M320.281,461.441a9.127,9.127,0,0,0,4,3.973c2.7,1.089,4.862,2.319,4.812,4.1s-6.594,3.6-11.354.169c-3-2.18-3.962-2.18-4.444-3.542s.836-4.9.818-5.338C314.093,460.28,320.281,461.441,320.281,461.441Z" transform="translate(-17.315 -8.013)"/><path class="ae" d="M320.318,459.977a14.229,14.229,0,0,1-.073,1.539c-.055.027-6.328.545-6.167-.632a9.622,9.622,0,0,1,.607-2.06Z" transform="translate(-17.278 -8.089)"/><path class="bc" d="M343.409,373.286s5.825,25.7,7.158,33.516c1.134,6.662,2.035,13.6,1.493,18.412-.673,5.953-9.1,36.817-8.749,38.564s-8.82.273-8.82.273,6.408-34.41,5.128-40.809c-.948-4.746-9.265-36.269-10.531-34.651s-2.853,29.752-3.8,34.419-3.839,41.575-3.839,41.575-6.472.953-8.2-.509c0,0-.787-31.509-.186-40.267.229-3.335-3.91-40.008,1.395-54.769C317.265,361.226,343.409,373.286,343.409,373.286Z" transform="translate(-17.375 -11.918)"/><path class="bd" d="M369.333,352.025c-4.153-.584-17.218,5.2-18.407,4.766-.818-.3-2.725-6.54-4.087-11.267-.818-2.8-1.425-5.057-1.51-5.246h0a27.776,27.776,0,0,1-.043,5.07c-.019.18-.1.229-.123.416a1.555,1.555,0,0,1-.052.245,29.823,29.823,0,0,0-.7,3.079,19.456,19.456,0,0,0-.477,6.051h0v.27c-.114,4.046.163,8.414.273,10.731.182,3.594-1,5.215-1.035,5.262h0l-1.253-.175-.9-.128h0l-1.207-.169-4.739-.664-1.716-.243-.4-.057-3-.423-8.463-1.187-.929-.131-.382-.052-3.194-.452-1.441-.2h0s-1.226-8.69-1.319-13.387c-.084-4.315-2.395-13.079-2.771-14.474v-.03a.2.2,0,0,0,0-.038.61.61,0,0,0-.016-.06V339.5h0s-6.9,7.256-8.248,10.422c-.409.962-1.657,3.575-3.248,6.755a18.94,18.94,0,0,1-1.768-3.883v-.141c.108-3.128,3.384-15.825,5.973-24.12,2.011-4.041,3.744-7.31,4.3-7.708a61.221,61.221,0,0,1,7.485-3.352l.3-.12.85-.332.409-.159.216-.082.177-.068h0a23.741,23.741,0,0,1,2.967-1.014h.191a3.121,3.121,0,0,1,.393.019c1.907.108,7.629.647,9.458.818l.573.055h0l2.18,1h0l.123.057c.8.365,1.716.85,2.7,1.384,1.907,1.046,4.019,2.265,5.769,3.1s4.062,1.951,4.264,2.112l8.692,25.068,15.077-2.755Z" transform="translate(-17.937 -14.019)"/><path class="be" d="M342.482,369.328s.638.755.818,3.991c0,0-26.183-3.055-28.951-4.259,0,0-.108-3.542.48-3.616C315.476,365.385,342.482,369.328,342.482,369.328Z" transform="translate(-17.267 -11.957)"/><path class="z" d="M319.923,315.183c.079,4.109,8.035,6.357,8.035,6.357s3.33-4.171,2.534-4.572c-.314-.159-.439-.779-.477-1.477a14.249,14.249,0,0,1,.043-1.864c.025-.291.046-.48.046-.48s-1.136-1.2-2.583-2.627c-2.526-2.5-5.994-5.7-5.994-4.423a1.225,1.225,0,0,0,.027.243C322.168,309.2,319.923,315.183,319.923,315.183Z" transform="translate(-17.036 -14.428)"/><path class="bb" d="M320.629,366.061s-.572,3.6-.621,4.546l-1.212-.243s.335-3.814.545-4.453Z" transform="translate(-17.083 -11.939)"/><path class="bb" d="M339.311,368.786s.461,3.269.471,4.515l-1.28-.169s-.273-4.087-.411-4.517Z" transform="translate(-16.283 -11.826)"/><path class="ab" d="M322.863,309.028h0c.016.025.354.528.929,1.253,1.223,1.537,3.518,4.062,6.1,5.076a14.217,14.217,0,0,1,.043-1.864,4.311,4.311,0,0,0,.791-.1A24.558,24.558,0,0,0,329,310.864l-1.6-.477Z" transform="translate(-16.914 -14.295)"/><path class="z" d="M321.506,306.688c.687,1.5,1.341,2.58,1.526,3h0a5.338,5.338,0,0,0,.929,1.253c1.311,1.414,3.75,3.269,6.148,3.212a4.32,4.32,0,0,0,.79-.095,3.743,3.743,0,0,0,2.739-1.907C338.6,302.432,335,294.485,335,294.485s-13.572-3.837-15.695.248C317.819,297.625,319.887,303.169,321.506,306.688Z" transform="translate(-17.082 -14.965)"/><path class="bf" d="M335.086,294.778s1.262-.068,1.573-2.453-.316-3.02-.316-3.02a56.138,56.138,0,0,0-7.613-2.651c-2.011-.305-6.962-.6-8.12.73,0,0-2.818-.657-3.586,4.021-1.218,7.422,4.15,14.627,4.15,14.627s-.046-4.848,1.025-5.49,1.992.886,1.992.886l2.18.393s-3.321-7.174.664-7.443S332.8,295.2,335.086,294.778Z" transform="translate(-17.163 -15.233)"/><path class="z" d="M323.993,299.055c-.21-2.136-4.071-2.951-3.815-.714s2.157,4.39,3.039,4.315S324.15,300.682,323.993,299.055Z" transform="translate(-17.025 -14.793)"/><path class="bg" d="M299.865,356.6c1.682,3.21,4.338,7.935,6.96,12.513-.346.647-.684,1.284-1.005,1.907a38.514,38.514,0,0,0-1.986,4.423c-.6,1.676-1.428,5.962.164,6.758l8.376,4.632s.057-.164.169-.466c.273-.755.877-2.362,1.711-4.447.027-.068.108-.273.234-.545.166-.393.409-.954.681-1.594.125-.289.253-.591.387-.9l.466-1.089.664-1.548,1.019-2.366c.027-.063.055-.123.084-.186q.409-.882.837-1.771.658-1.369,1.362-2.725l.139-.273c.082-.157.166-.313.248-.469l.155-.273.036-.063.06-.108c2.423-4.417,5.15-8.112,6.019-13.529q.128-.78.239-1.559c.128-.863.243-1.709.348-2.539.038-.314.079-.627.118-.934.432-3.614.695-6.833.9-9.076.657-6.987-3.624-14.553-6.91-19.226a51.781,51.781,0,0,0-3.512-4.487l-.016-.016-.177.068-.216.082-.409.159-.85.332-.3.12c-3.182,1.248-10.679,3.466-11.523,4.068-.488.348-.777,3.164-2.032,7.19a121.157,121.157,0,0,0-4.207,23.921v.141A18.352,18.352,0,0,0,299.865,356.6Zm12.728-1.559a14.426,14.426,0,0,1-1.286,5.242c-.022.05-.041.1-.06.145-.545-1.144-1.043-2.243-1.5-3.269h0a26.348,26.348,0,0,1-2.15-5.825c-.307-5.534,3.769-11.9,3.769-11.9h0v.032a.39.39,0,0,1,.016.06.2.2,0,0,1,0,.038v.03c.864,3.311,1.206,15.449,1.206,15.449Z" transform="translate(-17.94 -13.98)"/><path class="bg" d="M373.486,343.457l-18.964,4.128-9.04-23.64c-.2-.159-2.793-1.553-4.507-2.373-1.787-.85-4.049-1.907-6.055-2.826-.957-.444-1.861-.863-2.621-1.207l-.063.049a111.671,111.671,0,0,1,2.567,13.03h0c.052.311.1.629.15.954a.278.278,0,0,0,.016.114l.1.654v.077l.066.45c.054.368.108.744.164,1.125.647,4.53,1.553,12.234,2.425,20.016h0c.687,6.133,2.257,12.427,2.755,17.123h0a32.692,32.692,0,0,0,.654,3.528c.036.159.071.316.108.477,1.4,5.926,4.128,14.319,4.128,14.319l.814-.7,2.348-2.18a1.907,1.907,0,0,0,.529-1.964c-1.3-4.207-5.717-19.073-6.54-29.545-.253-3.286.705-6.381,1.264-9.319a.305.305,0,0,0,.027.079c.468,1.294.984,2.705,1.5,4.087h0c1.4,3.687,2.828,7.1,3.425,7.322,1.325.488,26.3-6.34,26.469-7.322Z" transform="translate(-16.526 -13.943)"/><path class="bh" d="M319.3,326.833l3.869,2.18-1.654,1.687,4.4,23.776c.9-5.572,1.308-10.867,1.611-14.111,1.014-10.8-9.768-22.987-10.438-23.731-.518.2-1.089.411-1.654.641Z" transform="translate(-17.221 -13.98)"/><path class="bh" d="M332.178,317.485s1.446,4.725,3.128,16.512c.647,4.53,1.553,12.24,2.425,20.019l.9-22.267-1.845-2,1.635-2.049-3.507-8.953c-.957-.444-1.859-.863-2.621-1.207Z" transform="translate(-16.528 -13.944)"/><path class="bi" d="M316.846,316.759l3.21-1.948s.09,1.76,8.035,6.357l-2.257,6.357Z" transform="translate(-17.163 -14.055)"/><path class="bi" d="M329.751,315.661a14.915,14.915,0,0,1-2.114,5.471l4.405,5.737.324-9.313Z" transform="translate(-16.716 -14.02)"/><path class="ba" d="M327.653,320.915s-.853,3.414-.545,4.36a4.16,4.16,0,0,0,3.226-.172A14.955,14.955,0,0,0,327.653,320.915Z" transform="translate(-16.741 -13.803)"/><path class="bj" d="M331.88,368.6c.477-2.409.022-9.629,0-9.935l-.409.025c0,.077.471,7.474,0,9.831Z" transform="translate(-16.557 -12.238)"/><path class="bk" d="M328.66,367.133s3.853.461,5.126.779l-.166,4.315-5.044-.545Z" transform="translate(-16.677 -11.888)"/><path class="ba" d="M329.549,324.67a60.641,60.641,0,0,1,3.6,23c-.727,12.594-1.907,17.166-1.907,17.166l-2.651,3.321-1.166-4.087s3.542-16.055,1.259-31.675c-.414-2.832-1.032-8.2-1.032-8.2Z" transform="translate(-16.725 -13.667)"/><path class="z" d="M317.236,373.858s.921,1.845,1.842,2.157a8.011,8.011,0,0,1,2.265,1.807l-6.49,3.425a17.723,17.723,0,0,1-1.807-5.531C312.972,373.558,317.236,373.858,317.236,373.858Z" transform="translate(-17.321 -11.609)"/><path class="bd" d="M317.866,374.025l.431.863s-4.125,3.02-5.235,3.207l-.382-1.153Z" transform="translate(-17.336 -11.602)"/><path class="bg" d="M318.647,374.888a31.737,31.737,0,0,1-5.694,3.733L304.2,362.873l4.539-8.774S318.443,373.34,318.647,374.888Z" transform="translate(-17.687 -12.427)"/><path class="bc" d="M343.38,345.2c.469,1.294.984,2.705,1.5,4.087a43.284,43.284,0,0,0,.118-4.446c-.207-8.174-2.78-12.455-2.78-12.455a27.6,27.6,0,0,1,1.009,7.242c.145,2.912.123,5.5.123,5.5h0Z" transform="translate(-16.112 -13.327)"/><path class="bc" d="M305.512,368.939l7.011,8.467-5.994-10.381Q305.992,367.992,305.512,368.939Z" transform="translate(-17.632 -11.892)"/><path class="ao" d="M354.49,360.016h16.188a2.4,2.4,0,0,0,2.335-1.839l7.03-29.03a2.4,2.4,0,0,0-2.335-2.968h-16.18a2.4,2.4,0,0,0-2.338,1.834l-7.019,29.043a2.4,2.4,0,0,0,2.325,2.957Z" transform="translate(-15.703 -13.584)"/><path class="z" d="M373.622,351.33c-.79-.733-2.319-1.158-3.626-2.032a1.028,1.028,0,0,1-.216-1.777c-1.346-.461-1.2-1.079-1.03-1.493.234-.564,1.7-.4,1.7-.4a14.4,14.4,0,0,1-1.859-.545c-.545-.239-.359-1.187.475-1.482s4.228.545,4.228.545l-2.229-1.112c-1.684-.839-2.041-1.605-1.055-1.973.687-.253,2.035.273,4.632,2.019,1.948,1.311,1.791,1.48,1.791,1.48S374.568,352.205,373.622,351.33Z" transform="translate(-15.032 -12.97)"/><path class="l" d="M619.077,118.946a12.649,12.649,0,0,1-7.551-2.278,9.483,9.483,0,0,1-4.112-6.9,57.612,57.612,0,0,0-4.758-14.42,25.442,25.442,0,1,1,30.45-1.834,54.748,54.748,0,0,0-2.117,14.295c.432,5.583-4.464,10.556-10.949,11.1C619.72,118.927,619.4,118.941,619.077,118.946Zm-2.739-68.2a23.357,23.357,0,0,0-12.3,43.008l.25.161.125.273a59.932,59.932,0,0,1,5.06,15.281v.079a7.442,7.442,0,0,0,3.251,5.428,10.708,10.708,0,0,0,7.133,1.848c5.354-.444,9.411-4.43,9.04-8.888v-.079a57.2,57.2,0,0,1,2.275-15.209l.087-.316.253-.21a23.354,23.354,0,0,0-15.19-41.37Z" transform="translate(-5.796 -25.082)"/><path class="l" d="M583.859,83.385l-5.8-27.316,6.185,4.246,3.212-4.28,3.419,3.439,4.971-5.041-.787,27.951-2.079-.06.637-22.665-2.733,2.774-3.207-3.223-2.967,3.951-3.534-2.425,4.717,22.221Z" transform="translate(23.951 2.26)"/><rect class="l" width="18.044" height="7.272" transform="translate(605.033 92.005) rotate(-4.75)"/><rect class="l" width="23.924" height="11.744" transform="translate(603.384 86.997) rotate(-4.574)"/></g></g></g></svg>